PathFileType	4	(X/Y/Z)	 s10c0001.trc
DataRate	CameraRate	NumFrames	NumMarkers	Units	OrigDataRate	OrigDataStartFrame	OrigNumFrames
200	200	4	49	mm	200	1501	2000
Frame#	Time	racr			lacr			c7			jug			rlel			rdr			llel			ldr			s2			lic			ric			lasi			rasi			rpsi			lpsi			rgt			lgt			rth1			rth2			rth3			rth4			rlfc			rmfc			rsh1			rsh2			rsh3			rsh4			rlmal			rmmal			rcal			rtoe			rmt5			rmt1			lth1			lth2			lth4			lth3			llfc			lmfc			llmal			lmmal			lcal			lmt1			lmt5			lsh1			lsh2			lsh3			lsh4			ltoe			
		X1	Y1	Z1	X2	Y2	Z2	X3	Y3	Z3	X4	Y4	Z4	X5	Y5	Z5	X6	Y6	Z6	X7	Y7	Z7	X8	Y8	Z8	X9	Y9	Z9	X10	Y10	Z10	X11	Y11	Z11	X12	Y12	Z12	X13	Y13	Z13	X14	Y14	Z14	X15	Y15	Z15	X16	Y16	Z16	X17	Y17	Z17	X18	Y18	Z18	X19	Y19	Z19	X20	Y20	Z20	X21	Y21	Z21	X22	Y22	Z22	X23	Y23	Z23	X24	Y24	Z24	X25	Y25	Z25	X26	Y26	Z26	X27	Y27	Z27	X28	Y28	Z28	X29	Y29	Z29	X30	Y30	Z30	X31	Y31	Z31	X32	Y32	Z32	X33	Y33	Z33	X34	Y34	Z34	X35	Y35	Z35	X36	Y36	Z36	X37	Y37	Z37	X38	Y38	Z38	X39	Y39	Z39	X40	Y40	Z40	X41	Y41	Z41	X42	Y42	Z42	X43	Y43	Z43	X44	Y44	Z44	X45	Y45	Z45	X46	Y46	Z46	X47	Y47	Z47	X48	Y48	Z48	X49	Y49	Z49	
1501	7.5050	460.303540	1378.502473	682.337708	482.651885	1386.334575	304.628410	430.225426	1426.348122	483.754766	562.099810	1375.228793	501.802235	450.709978	1123.103189	815.953512	473.483644	912.415643	931.490080	484.016872	1108.999475	192.842067	540.237682	907.545285	87.558932	386.798383	931.607424	495.251075	535.120925	993.997733	350.545361	536.677539	1001.702852	648.887710	598.160464	918.662764	383.364445	580.439286	907.709349	638.536974	405.141523	972.187404	557.840533	405.836113	983.804103	444.322658	463.441856	853.734283	683.436092	472.297129	854.482311	307.626320	483.115932	729.298808	714.498405	505.946180	643.448244	700.287985	483.904883	561.573254	691.544003	542.612250	646.252411	691.802833	493.443094	459.376109	674.824679	481.394386	441.019223	562.224946	447.590068	360.084662	716.711010	468.693974	273.219968	714.553913	444.169683	190.583743	716.585818	500.410875	274.215804	691.397452	454.100834	84.993652	709.936394	483.576557	95.888844	630.040924	420.335465	50.327373	655.057160	652.019015	85.033040	711.303013	566.111429	42.146392	755.902589	609.747054	46.708738	658.361825	494.641858	746.211551	282.315689	517.026012	663.845087	294.199935	551.013308	666.159797	304.958431	495.164712	577.836709	300.766056	496.207424	472.694611	314.836786	491.269888	454.783557	425.167371	450.845456	103.742440	283.875047	469.856850	101.060021	362.237363	411.035914	58.709657	327.018001	612.099228	47.392859	347.337377	579.620952	46.115742	245.204144	446.914563	364.283926	269.544771	473.095293	281.440815	275.611058	452.322129	194.221966	273.280946	501.842604	283.038717	301.543347	653.361426	92.384836	295.269491	
1502	7.5100	460.271255	1378.502661	682.326058	482.636740	1386.329385	304.622148	430.199468	1426.359165	483.757278	562.083744	1375.228978	501.811836	450.661326	1123.110423	815.981373	473.450734	912.449868	931.533154	484.026486	1109.003005	192.802707	540.240390	907.548652	87.531092	386.801075	931.617824	495.259497	535.129233	993.993591	350.545527	536.690607	1001.692218	648.871904	598.161328	918.654858	383.361751	580.440031	907.728140	638.529449	405.067654	972.222297	557.829250	405.836844	983.794550	444.299113	463.429232	853.732193	683.419864	472.298640	854.487225	307.620910	483.092660	729.305674	714.469611	505.957222	643.451902	700.273497	483.891835	561.586937	691.523418	542.614312	646.226610	691.786618	493.440844	459.374553	674.804938	481.411132	441.030944	562.224843	447.576313	360.098071	716.699407	468.686188	273.206268	714.548425	444.190552	190.579678	716.585266	500.399660	274.207138	691.405855	454.102502	85.002588	709.923051	483.571518	95.871146	630.056349	420.237276	50.412680	655.025753	652.007296	85.071690	711.279749	566.139581	42.152838	755.905551	609.741802	46.718399	658.355859	494.639581	746.208467	282.316608	517.032088	663.827224	294.231644	551.008570	666.167338	304.942293	495.158240	577.832683	300.766293	496.213198	472.691981	314.815838	491.268605	454.782461	425.160246	450.842349	103.748549	283.867145	469.858513	101.057091	362.239726	411.031997	58.705081	327.007424	612.124420	47.408181	347.333748	579.621493	46.120045	245.196414	446.903259	364.278566	269.535678	473.055201	281.441509	275.608894	452.319660	194.218201	273.276853	501.846774	283.053420	301.543617	653.350358	92.395044	295.278780	
1503	7.5150	460.235546	1378.512708	682.319698	482.627982	1386.343138	304.601392	430.178141	1426.348175	483.739428	562.068760	1375.237477	501.806736	450.618570	1123.120989	815.996927	473.392493	912.471241	931.543746	484.029727	1109.010539	192.788085	540.239433	907.566150	87.501855	386.787844	931.612710	495.215187	535.109358	993.991831	350.541929	536.657690	1001.703102	648.868618	598.161512	918.654611	383.361341	580.424756	907.706090	638.538023	405.060637	972.219451	557.808324	405.838015	983.803948	444.272245	463.427643	853.730748	683.416854	472.294750	854.493781	307.608691	483.076641	729.308179	714.466569	505.908657	643.463191	700.267096	483.883905	561.586097	691.522972	542.586046	646.241523	691.776978	493.434786	459.364892	674.803795	481.429380	441.042576	562.224191	447.584514	360.085104	716.685457	468.703761	273.217812	714.548053	444.169660	190.579381	716.572326	500.426036	274.218729	691.397814	454.109187	84.982029	709.926345	483.555367	95.869437	630.051276	420.263529	50.382643	655.030324	652.000231	85.051952	711.267348	566.120396	42.149156	755.892629	609.747240	46.716760	658.349859	494.639745	746.208425	282.316550	517.027367	663.833267	294.212812	550.999089	666.177270	304.909582	495.150033	577.825220	300.760519	496.196141	472.694700	314.820671	491.270335	454.776801	425.159804	450.814866	103.762841	283.861554	469.872707	101.054764	362.228252	411.029764	58.710049	327.007433	612.113925	47.415891	347.329969	579.623994	46.118287	245.201465	446.907001	364.269008	269.523202	473.065435	281.441452	275.599881	452.310074	194.217659	273.264423	501.822556	283.024419	301.533576	653.361741	92.392226	295.260273	
1504	7.5200	460.207521	1378.498684	682.314609	482.612513	1386.344799	304.595272	430.159017	1426.358949	483.697972	562.052320	1375.226769	501.817965	450.566279	1123.130636	816.003710	473.341808	912.493992	931.602970	484.014603	1109.013936	192.777146	540.241456	907.576768	87.469404	386.769264	931.620432	495.218168	535.096736	993.998546	350.539781	536.644681	1001.699427	648.867340	598.147154	918.654246	383.349630	580.402904	907.726878	638.532626	405.023253	972.230150	557.804462	405.827332	983.805764	444.245422	463.404070	853.723700	683.404236	472.287255	854.491855	307.599766	483.088370	729.304784	714.457102	505.922481	643.450462	700.246838	483.879059	561.590140	691.515426	542.573182	646.235859	691.763406	493.428916	459.367071	674.799150	481.448880	441.053903	562.222930	447.531624	360.044515	716.694760	468.675692	273.208078	714.549947	444.139032	190.589509	716.576600	500.405476	274.199913	691.397992	454.068909	85.004484	709.925815	483.558234	95.862863	630.047853	420.239241	50.382875	655.030506	652.003449	85.070015	711.269946	566.100628	42.158928	755.882148	609.743967	46.711216	658.351350	494.660628	746.215861	282.297218	517.031542	663.831369	294.235103	550.994260	666.183548	304.893050	495.168440	577.852583	300.747235	496.193344	472.694274	314.827245	491.258694	454.774343	425.152128	450.837787	103.766366	283.846118	469.840776	101.061660	362.225003	411.028603	58.715117	326.997385	612.106978	47.419699	347.314554	579.619171	46.124985	245.192415	446.920550	364.280208	269.535762	473.059608	281.426127	275.597343	452.315396	194.221979	273.260335	501.854255	283.046563	301.530983	653.359303	92.386583	295.243833	
